#N canvas 1940 91 843 842 12;
#X obj 218 103 udpreceive;
#X obj 349 347 print split1;
#X obj 218 397 dac~ 1;
#X obj 274 397 dac~ 2;
#X obj 218 360 sig~;
#X obj 273 360 sig~;
#X text 305 70 The port in the GUI you are sending TimeSeries to;
#X text 305 110 Connect to UDP stream at that port;
#X text 324 156 Parse data from OSC format to Pd list;
#X text 337 218 Split lists to access 2 channels of interest;
#X text 34 99 Audio output control;
#X text 672 14 2019 Brian Coughlin;
#X text 24 15 Cyton -> OSC -> Audio;
#X obj 56 122 cnv 15 110 50 empty empty empty 20 12 0 14 -204786 -66577
0;
#X msg 94 131 \; pd dsp 1;
#X text 62 139 ON;
#X obj 56 177 cnv 15 110 50 empty empty empty 20 12 0 14 -261234 -66577
0;
#X msg 91 185 \; pd dsp 0;
#X text 58 192 OFF;
#X obj 204 67 cnv 15 100 30 empty empty empty 20 12 0 14 -204800 -66577
0;
#X msg 218 72 port 12345;
#X text 202 15 Code to convert 2Chs of OpenBCI data to audio out Via
OSC;
#X text 339 387 Now convert those values to audio signals and send
the the L+R channels to your audio output;
#X obj 486 347 print split2;
#X obj 218 141 unpackOSC;
#X obj 218 183 routeOSC /openbci;
#X obj 218 218 list split 1;
#X obj 258 245 list split 1;
#X obj 218 311 -0.5;
#X obj 258 310 -0.5;
#X text 329 278 Scaling;
#X obj 218 279 / 1000;
#X obj 273 278 / 1000;
#X text 475 319 Print values to console for debugging;
#X text 315 310 Offset;
#N canvas 0 50 450 250 (subpatch) 0;
#X array Ch1 1250 float 2;
#X coords 0 1 1250 -1 800 140 1 0 0;
#X restore 18 500 graph;
#N canvas 0 50 450 250 (subpatch) 0;
#X array Ch2 1250 float 2;
#X coords 0 1 1250 -1 800 140 1 0 0;
#X restore 17 657 graph;
#X obj 122 400 tabwrite Ch2;
#X obj 26 400 tabwrite Ch1;
#X obj 123 312 f;
#X obj 158 311 + 1;
#X floatatom 122 366 5 0 0 0 - - -;
#X obj 123 285 metro 4;
#X obj 123 337 mod 1250;
#X obj 72 238 cnv 15 75 25 empty empty empty 20 12 0 14 -203904 -66577
0;
#X text 75 241 Plot;
#X obj 118 241 tgl 15 0 empty empty empty 17 7 0 10 -262144 -1 -1 0
1;
#X text 744 476 5 seconds;
#X text 15 286 250Hz sampling;
#X text 14 336 Loop at 5 sec;
#X connect 0 0 24 0;
#X connect 4 0 2 0;
#X connect 5 0 3 0;
#X connect 20 0 0 0;
#X connect 24 0 25 0;
#X connect 25 0 26 0;
#X connect 26 0 31 0;
#X connect 26 1 27 0;
#X connect 27 0 32 0;
#X connect 28 0 4 0;
#X connect 28 0 38 0;
#X connect 28 0 1 0;
#X connect 29 0 5 0;
#X connect 29 0 37 0;
#X connect 29 0 23 0;
#X connect 31 0 28 0;
#X connect 32 0 29 0;
#X connect 39 0 40 0;
#X connect 39 0 43 0;
#X connect 40 0 39 1;
#X connect 41 0 38 1;
#X connect 41 0 37 1;
#X connect 42 0 39 0;
#X connect 43 0 41 0;
#X connect 46 0 42 0;
